<?xml version="1.0" encoding="utf-8"?>
<!-- Generator: Adobe Illustrator 27.9.0, SVG Export Plug-In . SVG Version: 6.00 Build 0)  -->
<svg version="1.1" id="Layer_1" xmlns="http://www.w3.org/2000/svg" xmlns:xlink="http://www.w3.org/1999/xlink" x="0px" y="0px"
	 viewBox="0 0 5000 5000" style="enable-background:new 0 0 5000 5000;" xml:space="preserve">
<style type="text/css">
	.st0{fill-rule:evenodd;clip-rule:evenodd;fill:#219EBC;}
	.st1{fill-rule:evenodd;clip-rule:evenodd;fill:#FB8500;}
</style>
<g>
	<path class="st0" d="M2793.4,1571.6c417.1,158.1,713.7,561.4,713.7,1034c0,55.5-4.1,110-12,163.2l-120.6-206.2
		c-14.4-331.8-194.8-620.5-460.3-785.1L2793.4,1571.6L2793.4,1571.6z M2260.1,1642c-470.8,68.5-832.4,473.8-832.4,963.6
		c0,132,26.3,257.9,73.9,372.7c-26.5,47.3-52.6,94.8-78.2,142.7c-81.3-153.9-127.3-329.3-127.3-515.4
		c0-590.4,462.8-1072.6,1045.3-1103.8L2260.1,1642L2260.1,1642z M3135.9,3431.9c-195.3,173.7-452.4,279.2-734.3,279.2
		c-127.9,0-250.7-21.8-365-61.8c41.1-34.5,84.2-67.4,128.9-98.7c75.6,18.8,154.7,28.8,236.1,28.8c241.4,0,462.2-87.8,632.3-233.3
		C3070.1,3372.7,3104.3,3401.5,3135.9,3431.9L3135.9,3431.9z"/>
	<path class="st1" d="M1596.6,3045.9c64.2-5.3,302.3-124.7,489.1-186.8c89.9-32.8,96.1-11.2,139.6-85.7
		c54.7-93.8,300.3-502.2,336.8-564.3c119.4,176.8,226,382.6,332.6,568.6l-294.4,27.5c-427.9,59.4-826.6,186.2-1130.2,489.7
		c-78.1,78.1-246.5,292.2-249,405.4c211.2,0,425.2,10.7,632.9,10.7c100-374.7,658.9-740.2,1062-740.2
		c278.4,0,512.3,127.4,697.3,225.3c-4.8-58.2-148-280.7-186.1-350.3c-283.6-486-588-1004.2-876-1494.8
		c-37.9,66-415.2,713.7-482.6,836.9C1917.6,2479.6,1738.1,2751,1596.6,3045.9L1596.6,3045.9z"/>
	<path class="st0" d="M2457,3218.2c51.5-7.4,75.2-38.3,219.6-51.9c219.3-20.6,441.3,130.6,541.3,297.9l509.1,1.1
		c-16.9-73.6-170.4-202.7-231.9-252.5c-190.5-154.1-491.3-235.3-737.8-170.1C2644.2,3072.6,2511.6,3149.8,2457,3218.2L2457,3218.2z"
		/>
</g>
</svg>
