<?xml version="1.0" encoding="utf-8"?>
<!-- Generator: Adobe Illustrator 27.9.0, SVG Export Plug-In . SVG Version: 6.00 Build 0)  -->
<svg version="1.1" id="Layer_1" xmlns="http://www.w3.org/2000/svg" xmlns:xlink="http://www.w3.org/1999/xlink" x="0px" y="0px"
	 viewBox="0 0 5000 5000" style="enable-background:new 0 0 5000 5000;" xml:space="preserve">
<style type="text/css">
	
		.st0{fill-rule:evenodd;clip-rule:evenodd;fill:#4F378B;stroke:#FFFFFF;stroke-width:45;stroke-linecap:round;stroke-miterlimit:10;}
</style>
<g>
	<path class="st0" d="M1688.4,3017.6c103.7-40.3,263.6-114.1,397.3-158.5c89.9-32.8,96.1-11.2,139.6-85.7
		c45-77.2,219.2-367.3,299.9-502.3c17.2-28.8,58.7-29.4,76.8-1.1c91,142.5,175.1,299.3,258.3,447.2c16,28.5-2.6,64-35.1,67.1
		l-224.9,21c-427.9,59.4-826.6,186.2-1130.2,489.7c-65.9,65.9-196,228.5-236.6,345.7c-10.1,29.2,11.4,59.6,42.3,59.9
		c181.9,1.5,365.3,9.4,544.5,10.4c19.5,0.1,36.8-12.3,43-30.8c121.3-363.7,660.7-709.4,1052.7-709.4c224.7,0,420.5,83,584.9,166.5
		c39.5,20.1,81.3-23,60-61.9c-46.4-85-110.2-186.6-133.7-229.6c-270.8-464-560.5-957.4-836.8-1428c-17.5-29.8-60.6-29.7-78,0.2
		c-107.1,184.6-386.7,665.5-443.8,769.9c-138.4,267.4-300.8,517.7-435.9,784.8C1620.4,2996.9,1647.2,3033.7,1688.4,3017.6z"/>
	<path class="st0" d="M2457,3218.2c51.5-7.4,75.2-38.3,219.6-51.9c209.5-19.7,421.5,117.4,527.2,275.6c9.3,13.9,24.8,22.3,41.5,22.4
		l394.4,0.9c42.3,0.1,65.2-49.3,37.9-81.6c-55-65.2-140.3-136.6-182.5-170.7c-190.5-154.1-491.3-235.3-737.8-170.1
		C2644.2,3072.6,2511.6,3149.8,2457,3218.2L2457,3218.2z"/>
</g>
</svg>
