<?xml version="1.0" encoding="utf-8"?>
<!-- Generator: Adobe Illustrator 27.9.0, SVG Export Plug-In . SVG Version: 6.00 Build 0)  -->
<svg version="1.1" id="Layer_1" xmlns="http://www.w3.org/2000/svg" xmlns:xlink="http://www.w3.org/1999/xlink" x="0px" y="0px"
	 viewBox="0 0 800 800" style="enable-background:new 0 0 800 800;" xml:space="preserve">
<style type="text/css">
	.st0{fill:#B476E5;}
	.st1{fill:#FFFFFF;}
</style>
<path class="st0" d="M788,496.8C734.5,711.1,517.5,841.5,303.2,788C88.9,734.6-41.5,517.5,12,303.3C65.4,89,282.4-41.5,496.7,12
	C711,65.4,841.4,282.5,788,496.8L788,496.8z"/>
<path class="st1" d="M576.3,343c8-53.2-32.6-81.8-88-100.9l18-72.1l-43.9-10.9l-17.5,70.2c-11.5-2.9-23.4-5.6-35.1-8.3l17.6-70.7
	l-43.9-10.9l-18,72.1c-9.5-2.2-18.9-4.3-28-6.6l0-0.2L277,189.5l-11.7,46.9c0,0,32.6,7.5,31.9,7.9c17.8,4.4,21,16.2,20.5,25.5
	L297.2,352c1.2,0.3,2.8,0.8,4.6,1.5l-4.6-1.1l-28.7,115.1c-2.2,5.4-7.7,13.5-20.1,10.4c0.4,0.6-31.9-8-31.9-8l-21.8,50.3l57.1,14.2
	c10.6,2.7,21,5.5,31.3,8.1l-18.2,72.9l43.8,10.9l18-72.1c12,3.2,23.6,6.2,35,9.1L343.8,635l43.9,10.9l18.2-72.8
	c74.8,14.2,131.1,8.5,154.8-59.2c19.1-54.5-0.9-85.9-40.3-106.4C548.9,400.8,570.5,382,576.3,343L576.3,343z M476,483.6
	c-13.6,54.5-105.3,25.1-135.1,17.6l24.1-96.6C394.8,412.1,490.2,426.8,476,483.6L476,483.6z M489.6,342.2
	c-12.4,49.6-88.7,24.4-113.5,18.2l21.9-87.6C422.7,279,502.5,290.5,489.6,342.2z"/>
</svg>
