<svg xmlns="http://www.w3.org/2000/svg" width="703" height="654" fill="none"><path fill="#B476E5" d="M456.934 340.237c-10.761 6.63-44.883 11.018-59.383 11.825h65.395a93.67 93.67 0 0 0-6.012-11.825ZM467.65 366.981h-214.4l-78.835 163.672a103.701 103.701 0 0 0 11.893 9.07l-11.807 24.859a103.654 103.654 0 0 0 51.928.771l4.348-10.143a116.7 116.7 0 0 0 13.047.546l30.875-56.506-9.281 46.904a117.094 117.094 0 0 0 12.849 5.412l-3.423 13.778a86.117 86.117 0 0 0 47.301 0l1.452-6.49c4.144-.027 8.316-.189 12.515-.537L370.131 420.7l10.283 1.542 71.551-5.741c14.711-12.028 21.12-26.979 15.685-49.52ZM195.923 230.477a16.24 16.24 0 0 1-28.119 9.675 16.242 16.242 0 0 1-2.936-17.515 16.238 16.238 0 0 1 14.86-9.726 16.9 16.9 0 0 1 16.195 17.566ZM189.496 205.542a14.095 14.095 0 0 1-8.997 2.742c.316-3.21 1.74-6.21 4.027-8.484a14.1 14.1 0 0 1 8.998-2.742 13.878 13.878 0 0 1-4.028 8.484Z"/><path fill="#47BDFF" d="M377.928 188.25a24.432 24.432 0 0 1-1.353 6.598l8.226-7.712a27.922 27.922 0 0 1-6.873 1.114ZM410.661 260.897v39.932c2.228-.343 4.456-.686 6.684-1.114a246.967 246.967 0 0 0-6.684-38.818ZM360.704 320.109l-10.454-3.856a63.301 63.301 0 0 1-3.513-3.256c2.751-11.911 10.111-7.455 13.967 7.112ZM280.842 172.722v108.312a14.922 14.922 0 0 1-14.91 14.91h-5.656a14.917 14.917 0 0 0 14.91-14.91V172.722a14.918 14.918 0 0 0-14.91-14.91h5.656a14.921 14.921 0 0 1 14.91 14.91ZM226.772 348.301h-11.14a7.18 7.18 0 0 1-7.216-6.427l-4.695-45.835h-5.656l6.256 57.069h27.163a4.702 4.702 0 0 0-1.347-3.391 4.737 4.737 0 0 0-3.365-1.416ZM417.088 157.298a6.636 6.636 0 0 0-.117-8.626 6.638 6.638 0 0 0-8.537-1.228 6.625 6.625 0 0 0 .748-4.286 6.64 6.64 0 0 0-10.26-4.454c3.996-7.194-7.459-13.341-11.726-6.427a145.512 145.512 0 0 1-9.854 22.622c10.968-15.334 18.338.943 17.652 10.54.086 1.885 1.028 2.399 4.113.171 6.341-4.627 10.883 6.17-.942 11.483a33.636 33.636 0 0 0-3 22.793c-.085-1.2-1.456-25.107 25.536-30.077a6.255 6.255 0 0 0 4.961-6.084 6.634 6.634 0 0 0-.69-3.008 6.658 6.658 0 0 0-7.884-3.419ZM390.011 227.735c0 .818-.325 1.603-.902 2.181a3.097 3.097 0 0 1-2.183.904 3.095 3.095 0 0 1-2.183-.904 3.088 3.088 0 0 1 0-4.362 3.095 3.095 0 0 1 2.183-.904c.816 0 1.601.325 2.183.904.577.578.902 1.363.902 2.181ZM360.362 256.27c0 .818-.325 1.603-.902 2.181a3.097 3.097 0 0 1-2.183.904 3.097 3.097 0 0 1-2.183-.904 3.087 3.087 0 0 1 2.183-5.266c.816 0 1.601.325 2.183.904.577.578.902 1.363.902 2.181ZM383.413 288.575c0 .818-.325 1.603-.902 2.181a3.097 3.097 0 0 1-2.183.904 3.095 3.095 0 0 1-2.183-.904 3.088 3.088 0 0 1 0-4.363 3.099 3.099 0 0 1 2.183-.903 3.1 3.1 0 0 1 2.183.903c.577.579.902 1.364.902 2.182ZM552.889 298.258H522.04a4.109 4.109 0 0 0-2.908 1.205 4.109 4.109 0 0 0-1.205 2.908v45.587a4.11 4.11 0 0 0 4.113 4.113h30.849a4.163 4.163 0 0 0 2.891-1.222 4.15 4.15 0 0 0 1.222-2.891v-45.605a4.13 4.13 0 0 0-1.209-2.897 4.12 4.12 0 0 0-2.904-1.198ZM548.379 81.364 506.648 92.76a4.416 4.416 0 0 0-3.112 3.117 4.446 4.446 0 0 0 0 2.279 4.443 4.443 0 0 0 1.141 1.974l37.532 37.189a4.406 4.406 0 0 0 7.37-1.971l11.139-42.502-12.339-11.483Z"/><path fill="#47BDFF" d="M577.292 63.93a8.008 8.008 0 0 0-5.673-2.303 7.997 7.997 0 0 0-5.638 2.388l-17.395 17.567 11.726 10.882 17.052-17.223a8.082 8.082 0 0 0 2.278-5.67 8.09 8.09 0 0 0-2.35-5.641ZM209.291 6.498a5.486 5.486 0 0 1-6.566 5.362A5.485 5.485 0 0 1 203.816 1a5.47 5.47 0 0 1 5.067 3.394c.273.668.412 1.383.408 2.104ZM322.144 565.353a86.114 86.114 0 0 1-47.3 0c-14.482 4.199-42.931 24.422-42.931 24.422h95.715a111.479 111.479 0 0 0-5.484-24.422ZM226.428 565.353a103.654 103.654 0 0 1-51.928-.771 105.696 105.696 0 0 0-41.302 25.193h98.629a171.075 171.075 0 0 0-5.399-24.422ZM397.38 420.88l-16.967 1.371-10.283-1.542 2.143-8.655 25.107 8.826Z"/><path fill="#47BDFF" d="M694.123 352.071H27.971a7.454 7.454 0 1 0 0 14.91h91.296L67 656c-.07.424-.1.857-.086 1.285h15.082l52.474-290.304h453.312L630.028 601h15.081c-.086-.428-.086-.857-.171-1.353l-42.02-232.648h91.205a7.46 7.46 0 0 0 5.273-2.183 7.457 7.457 0 0 0-5.273-12.727v-.018Z"/><path stroke="#fff" stroke-width="2" d="M209.291 6.498a5.486 5.486 0 0 1-6.566 5.362A5.485 5.485 0 0 1 203.816 1a5.47 5.47 0 0 1 5.067 3.394c.273.668.412 1.383.408 2.104Z"/><path stroke="#fff" stroke-linejoin="round" stroke-width="2" d="M577.292 63.93a7.997 7.997 0 0 0-11.311.085l-17.395 17.567 11.726 10.882 17.052-17.223a8.077 8.077 0 0 0 2.278-5.67 8.086 8.086 0 0 0-2.35-5.641ZM694.124 352.071H27.971a7.454 7.454 0 1 0 0 14.91h91.296L67.586 655.715c-.071.424-.1.857-.086 1.285h15.081l51.889-290.019h453.312L630.028 601h15.081c-.086-.428-.086-.857-.171-1.353l-42.02-232.648h91.206a7.46 7.46 0 0 0 5.272-2.183 7.458 7.458 0 0 0 0-10.544 7.46 7.46 0 0 0-5.272-2.183v-.018Z"/><path stroke="#fff" stroke-linecap="round" stroke-linejoin="round" stroke-width="2" d="M341.253 340.417a30.663 30.663 0 0 1-14.066 10.558 30.666 30.666 0 0 1-17.554 1.096M147.44 326.021s-41.667-3.851-47.409 26.05M162.247 332.705c-1.286-.685-2.323-1.353-3.342-1.971-4.844-2.927-6.598-4.884-10.883-7.712a70.165 70.165 0 0 1-11.396-9.426c-9.517-9.764-6.341-11.482 4.37-5.055.065.009.125.04.171.085a170.417 170.417 0 0 0 22.194 11.316"/><path stroke="#fff" stroke-linecap="round" stroke-linejoin="round" stroke-width="2" d="M158.905 330.734a214.898 214.898 0 0 0-28.864-10.373c-8.307-2.336-6.855-4.207-5.484-4.455a65.919 65.919 0 0 1 15.167.599M160.704 348.301a52.484 52.484 0 0 0-5.227-.429c-14.815-.541-9.592-3.838-4.455-5.312 2.66-.763 7.026-1.629 10.539-2.828M481.184 429.62 509.5 622.5M507.662 305.199l-40.103-2.914M323.596 558.863l-1.452 6.49M274.757 565.353l3.509-13.778M230.799 555.156l-4.371 10.197M174.415 564.668l11.893-24.945M274.758 499.029l-30.934 56.727a99.154 99.154 0 0 1-69.409-25.103l78.835-163.672M311.518 558.521l31.62-149.894a16.911 16.911 0 0 1 7.39-10.739 16.89 16.89 0 0 1 12.832-2.286c26.605 5.948 76.621 11.414 81.654-28.422M200.081 313.881l97.127-15.785c16.024-24.354 35.056-80.765 62.639-88.604a25.516 25.516 0 0 0 11.911-6.855M377.928 188.25a30.713 30.713 0 0 0 6.724-.992l-8.118 7.59M396.523 203.314a10.882 10.882 0 0 0 6.169 5.141 125.139 125.139 0 0 1 37.532 22.099c12.691 11.645 23.903 54.314 28.792 82.434a26.672 26.672 0 0 1-3.797 19.077 26.667 26.667 0 0 1-15.74 11.428 245.543 245.543 0 0 1-51.928 8.569"/><path stroke="#fff" stroke-linecap="round" stroke-linejoin="round" stroke-width="2" d="M427.114 297.744a476.94 476.94 0 0 1-75.407 8.397"/><path stroke="#fff" stroke-linecap="round" stroke-linejoin="round" stroke-width="2" d="M417.259 299.647a230.195 230.195 0 0 0-6.683-38.817v40.017M214.86 311.454a54.265 54.265 0 0 1 7.712 40.531M320.773 317.795c-6.598 2.914-23.479 7.717-32.562 10.626-4.285 1.353 3.342 6.255 29.22-1.2"/><path stroke="#fff" stroke-linecap="round" stroke-linejoin="round" stroke-width="2" d="M322.058 324.479c-6.255 3.942-15.334 8.479-23.564 12.854-3.856 2.052-.343 6.512 22.45-2.914"/><path stroke="#fff" stroke-linecap="round" stroke-linejoin="round" stroke-width="2" d="M323.858 330.734c-3.608 4.456-6.733 8.777-12.768 15.253-2.809 3.017 2.35 4.848 21.423-8.569 3.518-2.476 5.412.239 10.025 4.113 6.103 5.119 10.198 11.054 14.653 10.454M334.997 310.769c-6.855-15.785-2.399-16.687 0-12.682a86.832 86.832 0 0 0 14.644 17.819"/><path stroke="#fff" stroke-linecap="round" stroke-linejoin="round" stroke-width="2" d="M346.737 312.997c2.138-9.291 7.094-8.623 11-.965 4.51 8.857 8.623 40.039-.803 40.039"/><path stroke="#fff" stroke-linecap="round" stroke-linejoin="round" stroke-width="2" d="M360.389 319.992c-10.08-3.762-26.253-10.337-30.619-10.337-1.628 0-20.223 5.412-29.22 7.883-5.913 1.633-8.736 4.361.857 4.028 4.027-.14 8.483-.686 12.511-1.2M341.596 253.194a129.029 129.029 0 0 0 .685 54.927M204.321 351.986h-44.045l5.484-55.956h32.391l6.17 55.956ZM195.923 230.477a16.24 16.24 0 0 1-28.119 9.675 16.235 16.235 0 0 1 11.923-27.241 16.9 16.9 0 0 1 16.196 17.566ZM189.496 205.542a14.095 14.095 0 0 1-8.997 2.742c.316-3.21 1.74-6.21 4.027-8.484a14.1 14.1 0 0 1 8.998-2.742 13.878 13.878 0 0 1-4.028 8.484ZM377.328 154.985a147.548 147.548 0 0 0 9.855-22.622 6.808 6.808 0 0 1 7.599-2.684 6.803 6.803 0 0 1 3.473 2.435 6.831 6.831 0 0 1 1.353 4.019 5.695 5.695 0 0 1-.686 2.656 6.64 6.64 0 0 1 10.26 4.455 6.625 6.625 0 0 1-.748 4.286 6.638 6.638 0 0 1 8.654 9.854 6.478 6.478 0 0 1 5.02.445 6.432 6.432 0 0 1 1.984 1.633 6.53 6.53 0 0 1 1.196 2.278c.239.831.311 1.702.212 2.562a6.52 6.52 0 0 1-.803 2.442 6.44 6.44 0 0 1-1.691 1.938 6.435 6.435 0 0 1-2.31 1.127 28.66 28.66 0 0 0-18.77 9.943 28.67 28.67 0 0 0-6.765 20.134M396.523 203.314l-1.628 12.853-13.11-10.368-14.825 7.455 4.799-10.626"/><path stroke="#fff" stroke-linecap="round" stroke-linejoin="round" stroke-width="2" d="M381.785 205.799c-10.797 27.249-14.653 61.439-14.825 99.486M557.02 312.911c3.251 0 6.368 1.29 8.663 3.59a12.232 12.232 0 0 1 3.59 8.664c0 3.251-1.289 6.368-3.59 8.663a12.235 12.235 0 0 1-8.663 3.59M669.359 199.201a7.53 7.53 0 0 1-1.272 4.189 7.542 7.542 0 1 1-10.458-10.459 7.535 7.535 0 0 1 4.189-1.271 7.47 7.47 0 0 1 2.891.562c.92.376 1.755.932 2.454 1.633a7.426 7.426 0 0 1 1.632 2.453c.379.918.569 1.901.564 2.893ZM608.776 330.306l53.042-123.565M661.818 191.66l-77.292-86.718M575.272 99.03l-13.111-8.398M531.313 126.536a10.376 10.376 0 0 1-9.958 1.555 10.338 10.338 0 0 1-4.28-2.967 10.328 10.328 0 0 1-2.241-9.089c.342-1.45.992-2.808 1.912-3.981M585.812 101.428a5.562 5.562 0 0 1-3.437 5.146 5.572 5.572 0 0 1-7.279-7.277 5.567 5.567 0 0 1 5.146-3.439 5.652 5.652 0 0 1 3.919 1.653 5.654 5.654 0 0 1 1.651 3.917ZM614.261 335.876a5.564 5.564 0 0 1-3.437 5.146 5.58 5.58 0 0 1-6.07-1.209 5.527 5.527 0 0 1-1.525-2.85 5.572 5.572 0 0 1 5.462-6.657c.73 0 1.457.14 2.133.419a5.562 5.562 0 0 1 3.437 5.151ZM380.413 441.36 365.5 641M212.547 82.234h-51.071V31.163h51.071v51.071ZM187.011 42.817l14.91-31.449M40.053 450.227H1.064M20.516 469.723v-38.989M670.902 425.507a11.353 11.353 0 0 1-6.035 11.081 11.345 11.345 0 0 1-12.546-1.33 11.389 11.389 0 0 1-3.622-5.507 11.356 11.356 0 0 1 .05-6.593 11.35 11.35 0 0 1 9.813-7.933 11.214 11.214 0 0 1 8.33 2.548 11.221 11.221 0 0 1 4.01 7.734ZM231.912 589.775h95.716M133.112 589.775h98.629M231.908 589.639a110.788 110.788 0 0 0-5.48-24.29 103.666 103.666 0 0 1-51.928-.772 111.724 111.724 0 0 0-51.585 36.337c39.589 0 65.896.086 95.716 0"/><path stroke="#fff" stroke-linecap="round" stroke-linejoin="round" stroke-width="2" d="M322.144 565.353a86.117 86.117 0 0 1-47.301 0c-21.341 6.188-48.649 27.998-56.212 35.561 45.244 0 73.693-.428 109.254-.428a95.124 95.124 0 0 0-5.741-35.133ZM370.13 420.709l2.143-8.655 25.107 8.826"/><path stroke="#fff" stroke-linecap="round" stroke-linejoin="round" stroke-width="2" d="m370.13 420.709 10.283 1.542 92.532-7.559M484.869 415.567l-29.135-2.142M215.717 552.585l72.494-121.594M373.901 304.77c7.712 11.397 9.683 27.164 5.741 47.301"/><path stroke="#fff" stroke-linecap="round" stroke-linejoin="round" stroke-width="2" d="m365.417 439.646 14.996 1.714 93.808-7.798a9.4 9.4 0 0 0 8.397-7.112l40.532-196.487a14.817 14.817 0 0 0-.068-6.388 14.817 14.817 0 0 0-2.738-5.772 14.897 14.897 0 0 0-11.076-5.749l-109.832-5.313"/><path stroke="#fff" stroke-linecap="round" stroke-linejoin="round" stroke-width="2" d="M329.856 364.411a44.91 44.91 0 0 0-35.561 35.389l-28.864 146.359a133.784 133.784 0 0 0 70.694 12.177c0-.424 26.243-106.26 34.019-137.618M260.276 157.812a14.918 14.918 0 0 1 14.91 14.91V281.12c0 3.955-1.57 7.749-4.367 10.546a14.913 14.913 0 0 1-10.543 4.373H112.118a14.956 14.956 0 0 1-14.95-14.91V172.722a14.88 14.88 0 0 1 9.181-13.774 14.875 14.875 0 0 1 5.702-1.136h148.225Z"/><path stroke="#fff" stroke-linecap="round" stroke-linejoin="round" stroke-width="2" d="M280.842 172.722v108.312a14.922 14.922 0 0 1-14.91 14.91h-5.656a14.917 14.917 0 0 0 14.91-14.91V172.722a14.917 14.917 0 0 0-14.91-14.91h5.656a14.921 14.921 0 0 1 14.91 14.91ZM399.098 165.7c6.314-4.654 10.824 6.102-.943 11.483-1.637.748-6.683 17.223-1.628 26.158-8.073 2.656-17.823 4.239-24.764-.686a23.158 23.158 0 0 0 6.165-14.405c-22.279.343-1.028-33.333-.6-33.333 10.892-15.23 18.234.794 17.666 10.337-.167 2.819 1.808 2.129 4.104.446ZM452.424 416.23a43.002 43.002 0 0 0 17.138-36.982 87.76 87.76 0 0 0-1.772-12.059M456.934 340.237a87.108 87.108 0 0 1 6.066 11.83M557.02 347.958a4.111 4.111 0 0 1-4.114 4.113h-30.848a4.114 4.114 0 0 1-4.113-4.113v-45.605a4.112 4.112 0 0 1 4.113-4.113h30.83a4.104 4.104 0 0 1 2.909 1.205 4.088 4.088 0 0 1 1.204 2.908l.019 45.605ZM647.508 341.36c.338.009.659.135.902.352.239.216.375.509.384.82v8.357a1.146 1.146 0 0 1-.384.821 1.411 1.411 0 0 1-.902.352h-77.549a1.414 1.414 0 0 1-.902-.352 1.145 1.145 0 0 1-.383-.821v-8.357c.009-.311.144-.604.383-.82.244-.217.564-.343.902-.352h77.549ZM380.413 441.36v-19.109"/><path stroke="#fff" stroke-linejoin="round" stroke-width="2" d="M548.379 81.364 506.648 92.76a4.416 4.416 0 0 0-3.112 3.117 4.446 4.446 0 0 0 0 2.279 4.443 4.443 0 0 0 1.141 1.974l37.532 37.189a4.406 4.406 0 0 0 7.37-1.971l11.139-42.502-12.339-11.483Z"/></svg>