<?xml version="1.0" encoding="utf-8"?>
<!-- Generator: Adobe Illustrator 27.9.0, SVG Export Plug-In . SVG Version: 6.00 Build 0)  -->
<svg version="1.1" id="Layer_1" xmlns="http://www.w3.org/2000/svg" xmlns:xlink="http://www.w3.org/1999/xlink" x="0px" y="0px"
	 viewBox="0 0 220.2 207.8" style="enable-background:new 0 0 220.2 207.8;" xml:space="preserve">
<style type="text/css">
	.st0{fill-rule:evenodd;clip-rule:evenodd;fill:#47BDFF;}
	.st1{fill-rule:evenodd;clip-rule:evenodd;fill:#B476E5;}
	.st2{fill-rule:evenodd;clip-rule:evenodd;fill:#66CCFF;}
</style>
<g>
	<path class="st0" d="M138.6,19.6c35.2,13.3,60.2,47.4,60.2,87.2c0,4.7-0.3,9.3-1,13.8l-10.2-17.4c-1.2-28-16.4-52.3-38.8-66.2
		L138.6,19.6L138.6,19.6z M93.6,25.6c-39.7,5.8-70.2,40-70.2,81.3c0,11.1,2.2,21.8,6.2,31.4c-2.2,4-4.4,8-6.6,12
		c-6.9-13-10.7-27.8-10.7-43.5c0-49.8,39-90.5,88.2-93.1L93.6,25.6z M167.5,176.6c-16.5,14.7-38.2,23.6-61.9,23.6
		c-10.8,0-21.1-1.8-30.8-5.2c3.5-2.9,7.1-5.7,10.9-8.3c6.4,1.6,13.1,2.4,19.9,2.4c20.4,0,39-7.4,53.3-19.7
		C161.9,171.6,164.8,174,167.5,176.6L167.5,176.6z"/>
	<path class="st1" d="M45.3,141.6c8.7-3.4,22.2-9.6,33.5-13.4c7.6-2.8,8.1-0.9,11.8-7.2c3.8-6.5,18.5-31,25.3-42.4
		c1.5-2.4,5-2.5,6.5-0.1c7.7,12,14.8,25.2,21.8,37.7c1.3,2.4-0.2,5.4-3,5.7l-19,1.8c-36.1,5-69.7,15.7-95.3,41.3
		c-5.6,5.6-16.5,19.3-20,29.2c-0.9,2.5,1,5,3.6,5.1c15.3,0.1,30.8,0.8,45.9,0.9c1.6,0,3.1-1,3.6-2.6c10.2-30.7,55.7-59.8,88.8-59.8
		c19,0,35.5,7,49.3,14c3.3,1.7,6.9-1.9,5.1-5.2c-3.9-7.2-9.3-15.7-11.3-19.4C169.2,88,144.7,46.4,121.4,6.7c-1.5-2.5-5.1-2.5-6.6,0
		c-9,15.6-32.6,56.1-37.4,64.9C65.7,94.2,52,115.3,40.6,137.8C39.6,139.9,41.9,143,45.3,141.6z"/>
	<path class="st2" d="M110.2,158.6c4.3-0.6,6.3-3.2,18.5-4.4c17.7-1.7,35.6,9.9,44.5,23.2c0.8,1.2,2.1,1.9,3.5,1.9l33.3,0.1
		c3.6,0,5.5-4.2,3.2-6.9c-4.6-5.5-11.8-11.5-15.4-14.4c-16.1-13-41.4-19.8-62.2-14.3C126,146.3,114.8,152.8,110.2,158.6L110.2,158.6
		z"/>
</g>
</svg>
