<?xml version="1.0" encoding="utf-8"?>
<!-- Generator: Adobe Illustrator 27.9.0, SVG Export Plug-In . SVG Version: 6.00 Build 0)  -->
<svg version="1.1" id="Layer_1" xmlns="http://www.w3.org/2000/svg" xmlns:xlink="http://www.w3.org/1999/xlink" x="0px" y="0px"
	 viewBox="0 0 400 120" style="enable-background:new 0 0 400 120;" xml:space="preserve">
<style type="text/css">
	.st0{fill-rule:evenodd;clip-rule:evenodd;fill:#219EBC;}
	.st1{fill-rule:evenodd;clip-rule:evenodd;fill:#F6851F;}
	.st2{fill:#219EBC;}
</style>
<g>
	<path class="st0" d="M77.8,15.8c19.2,7.3,32.9,25.9,32.9,47.6c0,2.6-0.2,5.1-0.6,7.5l-5.6-9.5c-0.7-15.3-9-28.6-21.2-36.2
		L77.8,15.8L77.8,15.8z M53.2,19c-21.7,3.2-38.4,21.8-38.4,44.4c0,6.1,1.2,11.9,3.4,17.2c-1.2,2.2-2.4,4.4-3.6,6.6
		C10.9,80.1,8.8,72,8.8,63.4C8.8,36.2,30.1,14,57,12.6L53.2,19L53.2,19z M93.6,101.5c-9,8-20.8,12.9-33.8,12.9
		c-5.9,0-11.6-1-16.8-2.8c1.9-1.6,3.9-3.1,5.9-4.5c3.5,0.9,7.1,1.3,10.9,1.3c11.1,0,21.3-4,29.1-10.7
		C90.6,98.8,92.1,100.1,93.6,101.5L93.6,101.5z"/>
	<path class="st1" d="M22.7,83.7c3-0.2,13.9-5.7,22.5-8.6c4.1-1.5,4.4-0.5,6.4-3.9c2.5-4.3,13.8-23.1,15.5-26
		c5.5,8.1,10.4,17.6,15.3,26.2l-13.6,1.3c-19.7,2.7-38.1,8.6-52.1,22.6c-3.6,3.6-11.4,13.5-11.5,18.7c9.7,0,19.6,0.5,29.2,0.5
		c4.6-17.3,30.4-34.1,48.9-34.1c12.8,0,23.6,5.9,32.1,10.4c-0.2-2.7-6.8-12.9-8.6-16.1C94,52.1,79.9,28.2,66.7,5.6
		c-1.7,3-19.1,32.9-22.2,38.6C37.5,57.6,29.2,70.1,22.7,83.7L22.7,83.7z"/>
	<path class="st0" d="M62.3,91.7c2.4-0.3,3.5-1.8,10.1-2.4c10.1-1,20.3,6,24.9,13.7l23.5,0.1c-0.8-3.4-7.9-9.3-10.7-11.6
		c-8.8-7.1-22.6-10.8-34-7.8C70.9,85,64.8,88.5,62.3,91.7L62.3,91.7z"/>
</g>
<g>
	<path class="st2" d="M170.8,72.4h-28.3l-5.4,14.8h-6.6l22.7-61.4h7l22.6,61.4h-6.6L170.8,72.4z M169,67.3l-12.3-33.6l-12.3,33.6
		H169z"/>
	<path class="st2" d="M229.8,43.1c3.7,3.6,5.5,8.8,5.5,15.6v28.5h-6.1V59.4c0-5.3-1.3-9.3-4-12.1c-2.6-2.8-6.2-4.2-10.8-4.2
		c-4.7,0-8.4,1.5-11.2,4.5c-2.8,3-4.2,7.3-4.2,13.1v26.5h-6.2V38.6h6.2v8.3c1.5-3,3.8-5.2,6.7-6.8c2.9-1.6,6.2-2.4,9.9-2.4
		C221.4,37.7,226.2,39.5,229.8,43.1z"/>
	<path class="st2" d="M281.5,41.1c3.4,2.1,5.8,4.8,7.3,8.1V38.6h6.2v49.8c0,4.5-1,8.4-2.9,11.8c-1.9,3.4-4.6,6.1-8.1,8
		c-3.4,1.9-7.4,2.8-11.7,2.8c-6.2,0-11.4-1.5-15.5-4.4c-4.1-3-6.7-7-7.7-12.1h6.1c1.1,3.4,3.1,6.1,6.1,8.1c3,2,6.7,3,11,3
		c3.1,0,6-0.7,8.5-2s4.5-3.3,5.9-5.9c1.4-2.6,2.1-5.7,2.1-9.3v-12c-1.5,3.3-4,6.1-7.3,8.2c-3.4,2.2-7.3,3.2-11.9,3.2
		c-4.5,0-8.4-1-12-3.1c-3.5-2.1-6.3-5-8.3-8.8c-2-3.8-3-8.2-3-13.2s1-9.4,3-13.1c2-3.8,4.7-6.7,8.3-8.7c3.5-2,7.5-3.1,12-3.1
		C274.1,37.9,278.1,39,281.5,41.1z M286.4,52.6c-1.6-3-3.8-5.3-6.5-6.9s-5.8-2.4-9.1-2.4c-3.4,0-6.5,0.8-9.3,2.3
		c-2.7,1.5-4.9,3.8-6.5,6.7c-1.6,2.9-2.4,6.4-2.4,10.5c0,4,0.8,7.5,2.4,10.5c1.6,3,3.7,5.3,6.5,6.9c2.7,1.6,5.8,2.4,9.3,2.4
		c3.3,0,6.4-0.8,9.1-2.4c2.8-1.6,4.9-3.9,6.5-6.9c1.6-3,2.4-6.4,2.4-10.3S288,55.5,286.4,52.6z"/>
	<path class="st2" d="M318.2,84.8c-3.6-2-6.5-5-8.6-8.7c-2.1-3.8-3.2-8.2-3.2-13.2c0-5,1.1-9.4,3.2-13.2c2.1-3.8,5-6.7,8.7-8.7
		c3.7-2,7.8-3.1,12.4-3.1c4.6,0,8.7,1,12.4,3.1c3.7,2,6.6,5,8.7,8.7c2.1,3.8,3.2,8.2,3.2,13.2c0,5-1.1,9.4-3.2,13.2
		c-2.1,3.8-5.1,6.7-8.8,8.8s-7.9,3.1-12.5,3.1C325.9,87.9,321.8,86.9,318.2,84.8z M339.4,80.3c2.7-1.5,4.9-3.6,6.6-6.6
		c1.7-2.9,2.5-6.5,2.5-10.8c0-4.3-0.8-7.9-2.5-10.8c-1.7-2.9-3.9-5.1-6.6-6.6c-2.7-1.5-5.7-2.2-8.9-2.2s-6.2,0.7-8.9,2.2
		c-2.7,1.5-4.9,3.6-6.5,6.6c-1.6,2.9-2.4,6.5-2.4,10.8c0,4.3,0.8,7.9,2.4,10.8c1.6,2.9,3.8,5.1,6.5,6.6c2.7,1.5,5.7,2.2,8.9,2.2
		S336.7,81.7,339.4,80.3z"/>
	<path class="st2" d="M378.9,40.2c2.8-1.7,6.3-2.5,10.4-2.5v6.5h-1.7c-4.5,0-8.1,1.2-10.9,3.6c-2.7,2.4-4.1,6.5-4.1,12.2v27.1h-6.2
		V38.6h6.2v8.6C374,44.2,376.1,41.9,378.9,40.2z"/>
</g>
</svg>
